<?xml version="1.0" encoding="utf-8"?>
<!-- Generator: Adobe Illustrator 28.0.0, SVG Export Plug-In . SVG Version: 6.00 Build 0)  -->
<svg version="1.1" id="Layer_1" xmlns="http://www.w3.org/2000/svg" xmlns:xlink="http://www.w3.org/1999/xlink" x="0px" y="0px"
	 viewBox="0 0 342.3 203.1" style="enable-background:new 0 0 342.3 203.1;" xml:space="preserve">
<style type="text/css">
	.st0{fill:#393C61;}
</style>
<path class="st0" d="M105.4,59.8L105.4,59.8c-11.6-11.7-35-14.4-80.5,5.2c-0.2,0.1-0.9,0.4-0.9,0.4c-1.2,0.8-2,2.1-2,3.6
	c0,2.3,1.9,4.4,4.2,4.2c0.8-0.1,1.3-0.3,2-0.6c6.7-2.4,39.6-11.4,56.9,4.2c0.6,0.5,1.1,0.9,1.6,1.4c0.5,0.5,1,1.1,1.4,1.6
	c15.6,17.3,6.6,50.2,4.1,56.9c-0.2,0.7-0.5,1.3-0.6,2c-0.2,2.4,1.9,4.2,4.2,4.2c1.5,0,2.8-0.8,3.6-2c0,0,0.3-0.6,0.4-0.9
	C119.7,94.9,117.1,71.5,105.4,59.8C105.4,59.8,105.4,59.8,105.4,59.8z M103.8,70c-0.4,4.2-4.1,7.3-8.3,6.9c-4.2-0.4-7.3-4.1-6.9-8.3
	c0.4-4.2,4.1-7.3,8.3-7C101.1,62.1,104.2,65.8,103.8,70L103.8,70z"/>
<path class="st0" d="M119,37.1c-5.5-0.5-10.3,3.5-10.8,9c-0.5,5.5,3.6,10.3,9,10.8c5.5,0.5,10.3-3.6,10.8-9
	C128.5,42.4,124.4,37.6,119,37.1L119,37.1z"/>
<path class="st0" d="M78,82.8c-2.9-0.3-5.4,1.9-5.7,4.7c-0.2,2.9,1.9,5.4,4.7,5.7c2.9,0.3,5.4-1.8,5.7-4.7C83,85.6,80.9,83,78,82.8
	L78,82.8z"/>
<path class="st0" d="M64.5,97.4c-2.2-0.2-4.1,1.4-4.2,3.5c-0.2,2.2,1.4,4.1,3.5,4.2c2.2,0.2,4.1-1.4,4.2-3.6
	C68.2,99.4,66.7,97.6,64.5,97.4L64.5,97.4z"/>
<path class="st0" d="M263.7,60.4h-9.4c-1.3,0-2.3,1.2-2.3,2.7v31.3h-32.3V63.1c0-1.5-1.1-2.7-2.3-2.7h-9.5c-1.2,0-2.3,1.2-2.3,2.7
	v79.3c0,1.4,1.1,2.7,2.3,2.7h9.5c1.3,0,2.3-1.2,2.3-2.7v-32.6H252v32.6c0,1.5,1.1,2.7,2.3,2.7h9.4c1.2,0,2.3-1.2,2.3-2.7V63.1
	C266,61.6,264.9,60.4,263.7,60.4z"/>
<path class="st0" d="M195.6,60.4h-41.4c-1.3,0-2.3,1.2-2.3,2.7v79.3c0,1.5,1.1,2.7,2.3,2.7h9.4c1.2,0,2.3-1.2,2.3-2.7v-32.6h24.7
	c1.2,0,2.3-1.2,2.3-2.7v-9.8c0-1.4-1.1-2.7-2.3-2.7h-24.7v-19h29.7c1.3,0,2.3-1.2,2.3-2.7v-9.8C197.9,61.6,196.8,60.4,195.6,60.4
	L195.6,60.4z"/>
<path class="st0" d="M293.7,60.4h-9.5c-1.2,0-2.3,1.2-2.3,2.7v79.3c0,1.4,1.1,2.7,2.3,2.7h9.5c1.2,0,2.3-1.2,2.3-2.7V63.1
	C296,61.6,294.9,60.4,293.7,60.4z"/>
</svg>
